<?xml version="1.0" encoding="UTF-8"?>
<svg width="513" height="513" version="1.0" xmlns="http://www.w3.org/2000/svg" xmlns:cc="http://creativecommons.org/ns#" xmlns:dc="http://purl.org/dc/elements/1.1/" xmlns:rdf="http://www.w3.org/1999/02/22-rdf-syntax-ns#">
 <title>Stoolball England icon</title>
 <metadata>
  <rdf:RDF>
   <cc:Work rdf:about="">
    <dc:format>image/svg+xml</dc:format>
    <dc:type rdf:resource="http://purl.org/dc/dcmitype/StillImage"/>
    <dc:title>Stoolball England icon</dc:title>
   </cc:Work>
  </rdf:RDF>
 </metadata>
 <rect width="100%" height="100%" fill="white" />
 <g transform="translate(-40.656 -201.62)">
  <g transform="matrix(1.48 0 0 1.4473 14.154 -31.549)" stroke-width=".77024">
   <path d="m175.5 231.59c-0.96218 0.0537-1.8003 0.66331-3.1291 2.1182-3.5585 3.8961-4.5691 6.4865-7.2451 18.39-1.1962 5.3209-0.10894 5.2686 0.0722 7.1488 0.0943 0.97884 0.0305 3.1923-0.12035 5.9453 5.8815 3.7066 11.07 8.8743 15.236 15.14 0.75535-6.5843 1.7306-13.424 1.709-14.875-0.0501-3.2535 0.58055-4.2594 0.81838-8.6412 0.23785-4.3817 0.59563-8.1296 0.79432-8.3282 0.19868-0.19868 2.7002 0.11468 5.5602 0.67396 5.8049 1.1352 27.203 1.2081 59.381 0.21663 19.245-0.59299 19.539-0.63817 20.989-2.4311 1.8677-2.3089 1.8631-2.3818-0.48141-4.9103-2.1503-2.319-6.0471-2.8132-11.072-1.372-1.6053 0.4604-2.9694 0.4803-3.4902 0.0481-0.46933-0.3895-4.8412-0.69147-9.7002-0.67396-4.8591 0.0175-9.8151-0.34551-11.024-0.81838-1.209-0.47288-5.297-0.94768-9.0985-1.035-3.8015-0.0873-7.1055-0.42746-7.3173-0.77025-0.4521-0.7315-12.742-0.0258-18.462 1.0591-4.1967 0.79591-10.731 1.5761-14.466 1.733-1.8011 0.0757-2.3579-0.30429-2.7921-1.9015-0.87654-3.2241-3.0908-6.0842-5.1269-6.5952-0.37232-0.0934-0.71428-0.13825-1.035-0.12035zm109.06 12.179c-3.0301 0-6.2814 4.2947-9.5558 12.613-1.6875 4.2866-3.4851 9.1852-3.9956 10.88-0.51053 1.6945-1.4068 4.2941-1.9738 5.7768-2.0234 5.2917-3.3939 12.226-3.3939 17.234 0 2.7984-0.31479 5.1029-0.7221 5.1029-1.7261 0-4.7899 19.449-3.2976 20.941 0.61189 0.61189 0.75742 2.6884 0.43326 6.523-0.33911 4.0118-0.19071 5.9489 0.50547 6.7878 0.53672 0.64671 1.6215 1.1794 2.407 1.1794 1.7824 0 7.3219-6.8934 7.9913-9.941 0.27274-1.2418 0.94545-2.4378 1.4923-2.6477 1.3352-0.51235 5.5709-11.395 6.4989-16.681 0.40959-2.3328 1.287-5.7988 1.9497-7.7024s1.2214-4.9021 1.2276-6.6674c6e-3 -1.7653 0.69323-4.8352 1.5405-6.8118 0.84726-1.9766 1.5405-4.8166 1.5405-6.3064 0-1.4898 0.84555-5.872 1.8534-9.7484 2.8614-11.006 2.9158-11.689 1.2035-13.239-0.82718-0.74859-1.5164-2.166-1.5164-3.1291 0-2.2528-1.9203-4.1641-4.1882-4.1641zm-100.42 105.48c-2.189 4.4085-4.837 8.4453-7.8468 11.987 3.9288 0.97954 8.8068 1.5587 14.851 1.9256 2.1181 0 6.9132-0.41541 10.663-0.91466s7.0543-0.69632 7.3173-0.43326c0.26304 0.26303-0.24672 1.4633-1.1072 2.6718-1.6022 2.25-4.4184 9.1512-6.5471 16.007-0.65771 2.1182-1.5433 4.891-1.9737 6.1619-1.7771 5.2465-2.9263 11.081-3.105 15.79-0.10439 2.7497-0.44195 5.176-0.74618 5.3917-1.8166 1.2881-4.6902 19.572-3.2976 20.965 0.58061 0.58061 0.70218 2.7482 0.38513 6.4989-0.50692 5.9968-0.57163 9.5077 2.0941 9.5077 1.6955 0 7.3515-7.3118 8.5449-10.735 0.47638-1.3665 1.666-3.3028 2.6718-4.3085 1.0058-1.0058 1.8293-2.3579 1.8293-2.9847 0-0.62679 0.84259-3.1445 1.8534-5.6083 1.0108-2.4638 2.2645-6.9033 2.7921-9.8687 0.52765-2.9654 1.2419-5.9453 1.5886-6.6193 0.34675-0.67402 0.70448-2.7537 0.79432-4.6215 0.0898-1.8678 0.75597-5.1269 1.4923-7.2451 0.73637-2.1182 1.5435-5.6884 1.7812-7.9431 0.23768-2.2548 0.76818-5.2009 1.1794-6.5471 0.90424-2.9598 2.1515-7.8656 2.744-10.735 0.31119-1.5072-5.8e-4 -2.552-1.1313-3.6827-2.2224-2.2224-1.1972-3.3396 2.5274-2.744 1.6982 0.27155 4.2028 0.14302 5.5842-0.31291 1.383-0.45641 9.5385-0.89907 18.125-0.98687 13.183-0.13481 15.702-0.35486 16.344-1.372 0.56466-0.8955 0.2926-1.7168-1.0832-3.2013-1.8368-1.982-1.9279-2-14.538-2.0941-22.663-0.16908-38.008-0.79555-38.801-1.5886-0.42687-0.42686-3.871-0.48317-6.7156-0.77024-6.2548-0.63122-13.442-0.62682-18.269-1.5886z"/>
   <path d="m137.3 257.75c-3.2326 0.0454-6.3912 0.66466-9.0744 1.8534-8.1778 3.623-17.619 12.189-17.619 15.983 0 0.7036-0.51393 1.4721-1.1313 1.709-1.4489 0.55599-4.8095 5.9229-5.488 8.7374-0.28933 1.2002-1.3917 3.8994-2.4552 6.0175s-2.2011 4.891-2.5274 6.1619c-0.32628 1.2709-1.6478 5.2569-2.9366 8.8578-1.2887 3.6009-2.3684 8.104-2.3829 10.013-0.01455 1.9092-0.38688 4.682-0.84245 6.1619-0.45558 1.4799-0.8113 5.9736-0.77024 9.965 0.06736 6.5489 0.35022 7.8354 2.7681 13.19 1.4736 3.2637 2.6718 6.9451 2.6718 8.1838 0 1.2388 0.29744 2.5822 0.64989 2.9847 0.35246 0.40246 1.3499 2.4947 2.2145 4.6455l1.5646 3.8994-9.5318 4.5492c-5.2415 2.4937-9.5318 4.7166-9.5318 4.9584s-1.0871 1.0836-2.4311 1.8775c-1.344 0.7939-3.7702 2.6511-5.3917 4.116-2.3958 2.1645-2.9461 3.1895-2.9365 5.4639 0.01253 2.9736 0.33792 3.7325 2.4551 5.3917 1.1666 0.91423 1.9496 0.60566 6.3064-2.5033 2.7331-1.9503 5.2057-3.5624 5.488-3.5624 0.28232 0 1.4572-0.68583 2.6236-1.5164 1.1664-0.83059 3.821-2.0633 5.8972-2.744s4.8752-1.7279 6.2101-2.3348c4.6385-2.1088 9.1954-0.91079 15.284 3.9956 1.6952 1.3659 4.5207 3.2839 6.2823 4.2845 4.1227 2.3417 10.709 8.4962 12.228 11.433 0.65039 1.2577 1.4587 2.2866 1.8052 2.2867 0.34657 0 2.2939 2.0796 4.3326 4.6214 2.0387 2.5418 4.1725 4.6214 4.7418 4.6215 0.56928 0 1.035 0.45828 1.035 1.0109s1.2633 2.3747 2.7921 4.0438c3.2963 3.5987 7.3837 9.7741 8.7134 13.166 0.52329 1.335 1.7912 3.2252 2.8162 4.1882s1.8534 2.2628 1.8534 2.9125c0 1.4478 5.3336 7.0284 6.7156 7.0285 0.54948 0 0.98688 0.3466 0.98687 0.77024 0 1.7077 5.4147 0.77247 7.7987-1.3479 3.899-3.4678 5.94-9.2404 3.7549-10.591-0.42363-0.26183-0.77023-0.96234-0.77024-1.5646 0-1.1005-3.9858-7.5554-6.884-11.144-0.85523-1.0591-1.5551-2.3101-1.5646-2.7921-9e-3 -0.48201-1.1668-2.5617-2.5755-4.6215-1.4087-2.0598-3.4728-5.6613-4.5733-7.9913-2.4478-5.1823-7.1353-10.783-9.0263-10.783-0.86451 0-1.5883-0.77398-1.9015-2.0219-0.61631-2.4556-0.52579-2.5524 4.2123-4.5011 4.1493-1.7066 14.299-9.268 18.028-13.431 9.5703-10.683 8.4498-11.764 12.011-15.02 3.4619-6.0511 4.5612-9.2961 5.849-11.842 0.97703-1.9933 1.792-4.1574 1.8053-4.814 0.0132-0.65663 0.29992-1.5232 0.64989-1.9256 0.88348-1.016 2.1592-5.917 3.2013-12.3 0.48418-2.9654 1.2733-7.1019 1.733-9.1948 0.98035-4.4625 0.28136-23.207-0.91467-24.648-0.43146-0.51988-0.6085-1.1486-0.38512-1.372 0.2234-0.22339-1.0054-3.3424-2.744-6.9322-2.3183-4.7866-4.735-8.1929-9.0744-12.805-3.2544-3.459-6.5509-6.2858-7.3173-6.2823-0.76636 4e-3 -1.2103-0.28841-0.98687-0.6499-5.8393-1.5409-9.8487-4.8074-15.862-4.3326-1.314 1.314-12.913 0.11932-18.341-1.9015-2.9797-1.1093-6.2751-1.6581-9.5077-1.6127zm18.847 20.7c3.3825-0.0485 6.319 0.20718 7.3654 0.77024 0.92532 0.4979 2.5789 0.89058 3.6827 0.89059 4.576 0 11.732 5.0774 14.37 10.206 0.81707 1.5886 1.8127 2.8884 2.2144 2.8884 0.40172 0 0.53779 0.47308 0.31291 1.0591-0.22487 0.58599 0.15244 2.4057 0.84245 4.0438 1.0474 2.4865 2.1733 13.035 2.046 19.16-0.12433 5.9785-5.5271 25.276-8.8819 31.724-3.6933 7.0986-17.849 18.569-24.359 19.737-1.9064 0.34217-6.7589 0.78077-10.783 0.9628-6.675 0.30195-7.6892 0.15245-11.554-1.6849-8.1611-3.8802-7.9395-3.6186-14.611-18.39-3.5806-7.9282-4.0394-10.386-4.2845-23.396-0.25038-13.291-0.28019-13.077 4.0678-26.453l1.9256-5.9212 3.3458 0.45733c3.2838 0.45009 3.3814 0.36947 8.5449-4.7418 6.8766-6.8071 10.5-9.175 15.694-10.302 2.8525-0.6189 6.6788-0.9625 10.061-1.0109z" fill="#008000"/>
  </g>
 </g>
</svg>
