<?xml version="1.0" encoding="UTF-8"?>
<svg version="1.1" viewBox="0 0 140.94 8.8004" xmlns="http://www.w3.org/2000/svg">
 <g transform="translate(-33.3 -180)">
  <path d="m87.129 188.52c-0.10328-0.1671 0.95891-0.90645 2.3604-1.643 2.2638-1.1897 2.8435-1.3424 5.194-1.3684 3.3273-0.0367 4.5861 0.28837 4.5861 1.1844 0 1.0349-0.45147 1.1212-2.897 0.55405-2.448-0.56773-3.712-0.39482-6.536 0.89414-1.6249 0.74167-2.415 0.85219-2.7076 0.37874zm14.518-1.8449c-1.1133-1.1818-2.0243-2.2376-2.0243-2.3462 0-0.24152 4.3318-4.3246 4.5881-4.3246 0.10067 0 1.2592 1.0194 2.5744 2.2654l2.3914 2.2654-1.8315 1.7033c-1.0073 0.93683-2.0344 1.9018-2.2823 2.1443-0.78758 0.77045-1.3426 0.49297-3.4158-1.7078zm15.438 1.063c-2.5624-0.80939-4.3649-0.85377-6.0516-0.14901-1.7388 0.7265-1.9496 0.67546-1.8211-0.44097 0.0983-0.85392 0.31584-1.0096 1.8164-1.2993 1.1762-0.2271 2.3538-0.19509 3.7982 0.10323 2.5027 0.51693 5.2567 1.6452 5.2567 2.1537 0 0.48584-0.48479 0.42641-2.9986-0.36762zm-32.791-0.29715c-0.11031-0.17849 0.19782-0.6379 0.68474-1.0209s0.88531-0.77648 0.88531-0.87439c0-0.0979-1.1112-0.2896-2.4694-0.426-1.3582-0.1364-2.4694-0.36986-2.4694-0.51881 0-0.29468 2.0759-0.70582 3.5952-0.71203 1.2472-5e-3 1.5639-0.58696 0.78691-1.4456-0.43051-0.47571-0.5122-0.80541-0.26163-1.056 0.25057-0.25057 0.71229-0.0715 1.4788 0.57348 1.4122 1.1883 4.2524 2.277 5.9404 2.277 1.8149 0 1.0744 0.56745-1.3091 1.0032-1.9937 0.36446-2.8004 0.66195-4.9389 1.8213-1.4318 0.77625-1.6505 0.81934-1.9228 0.37876zm36.409-1.1434c-0.72615-0.39333-1.9962-0.80113-2.8222-0.90622-2.9157-0.37093-3.6266-1.5064-0.94315-1.5064 0.76951 0 2.2949-0.31484 3.3897-0.69965 1.4713-0.51713 2.1122-0.59873 2.4568-0.31281 0.25637 0.21277 0.37913 0.52761 0.27279 0.69965-0.10632 0.17205 0.0646 0.31281 0.37986 0.31281 0.31525 0 0.90169 0.17581 1.3032 0.3907 0.58553 0.31336 0.63332 0.45194 0.24139 0.70015-0.26875 0.1702-0.91582 0.31189-1.438 0.31486-1.0175 6e-3 -1.5891 0.51767-0.99096 0.88734 0.37402 0.23116 0.15141 0.90066-0.2854 0.85832-0.13407-0.013-0.83789-0.34543-1.564-0.73877zm9.6384-0.14756c-0.0153-0.20943-0.36425-0.36818-0.77539-0.35277-1.142 0.0428-1.6852-1.0418-0.91008-1.817 0.59226-0.59226 0.67668-0.59295 1.6859-0.0137 0.86288 0.49523 1.1908 0.52956 1.7461 0.18279 0.55476-0.34645 0.78787-0.32276 1.2362 0.12562 0.50158 0.50158 0.49946 0.59665-0.0229 1.0302-0.4321 0.3586-0.73011 0.3811-1.1958 0.0903-0.68071-0.42511-1.2238-0.21059-1.5347 0.60621-0.11079 0.29104-0.21397 0.35781-0.22928 0.14837zm-57.442-0.40153c-0.4717-0.16946-0.57661-1.0996-0.22684-2.011 0.28319-0.73798 1.197-0.71827 1.197 0.0258 0 0.51951 0.08002 0.51142 0.72621-0.0734 0.85555-0.77426 1.8508-0.36981 2.0292 0.8246 0.14389 0.9634-1.1571 1.7289-1.896 1.1156-0.33997-0.28215-0.65167-0.30578-0.94759-0.0719-0.24254 0.19174-0.63941 0.27732-0.88194 0.19019zm5.0455-0.30801c-0.82139-0.82139-0.5679-2.0568 0.45166-2.2012 0.73499-0.1041 2.1843 0.77586 2.1704 1.3178-0.02769 1.0754-1.8247 1.6808-2.622 0.88346zm-44.645-0.84995c0-0.23074 6.4676-0.35277 18.697-0.35277 12.23 0 18.697 0.12203 18.697 0.35277 0 0.23075-6.4676 0.35278-18.697 0.35278-12.23 0-18.697-0.12203-18.697-0.35278zm103.89 0c0.14087-0.22793 6.7722-0.35277 18.739-0.35277 12.257 0 18.447 0.1193 18.303 0.35277-0.14087 0.22794-6.7722 0.35278-18.739 0.35278-12.257 0-18.447-0.1193-18.303-0.35278zm-25.841-1.1611c-1.9918-0.28153-2.2049-0.39186-2.2049-1.142 0-1.1672 0.42835-1.3057 1.991-0.64383 1.6785 0.71097 5.1465 0.73382 6.2167 0.041 0.43348-0.28064 1.2247-0.61777 1.7583-0.74918 1.6453-0.40519 1.1661 0.72278-0.70556 1.6607-2.0101 1.0073-4.0884 1.2527-7.0556 0.83335zm-19.478-0.63492c-2.2008-0.77163-3.8939-1.682-3.8939-2.0936 0-0.5422 0.95997-0.40565 2.8429 0.40439 1.7547 0.75486 3.0968 0.77395 7.123 0.10128 1.2324-0.20591 1.3229-0.1612 1.3229 0.65367 0 1.6274-3.9828 2.1306-7.395 0.93428z" stroke-width=".35278"/>
 </g>
</svg>
