<?xml version="1.0" encoding="UTF-8"?>
<svg width="147.25" height="43.675" version="1.1" viewBox="0 0 512.44 151.53"
   xmlns="http://www.w3.org/2000/svg">
   <g transform="matrix(.13501 0 0 -.13501 -96.365 247.95)">
      <path d="m2316.7 1579.9c0.5 14.32-4.44 23.22-12.34 29.14-7.91 5.93-19.27 7.91-31.63 7.91-18.27 0-41.99-5.44-41.99-28.65 0-26.68 52.86-28.16 87.45-40.52 61.25-21.74 82-55.33 82-97.32 0-84.97-82.5-124.99-159.07-124.99-81.02 0-154.14 37.05-149.69 126.97h105.22c0-19.27 4.45-31.13 13.34-40.02 9.39-7.9 22.24-8.89 40.02-8.89 21.24 0 47.43 10.87 47.43 34.09 0 25.69-36.07 29.14-84.97 45.45-42.98 14.32-84.48 37.05-84.48 95.84 0 79.53 77.06 116.09 148.21 116.09 75.08 0 142.76-28.16 140.79-115.1h-100.29"/>
      <path d="m2547.4 1524.6h41.5c43.47 0 57.79 16.31 57.79 40.02 0 27.17-24.2 31.61-46.93 31.61h-37.05zm-73.61 162.04h174.88c64.72 0 106.71-35.57 106.71-113.62 0-71.14-59.78-132.4-152.65-132.4h-73.12l-22.23-106.71h-107.2l73.61 352.73"/>
      <path d="m2925.4 1413.4c65.22 0 86.46 77.07 86.46 129.43 0 32.12-12.36 64.23-54.84 64.23-65.21 0-86.45-77.07-86.45-129.44 0-32.11 12.35-64.22 54.83-64.22zm34.58 281.59c99.8 0 160.56-46.93 160.56-154.62 0-118.57-78.06-214.91-198.1-214.91-99.79 0-160.55 52.86-160.55 154.63 0 118.57 78.04 214.9 198.09 214.9"/>
      <path d="m3252.4 1532.5h57.31c36.06 0 52.86 18.28 52.86 39.52 0 13.83-8.4 30.63-36.56 30.63h-58.79zm-75.1 154.13h178.84c65.22 0 115.11-17.78 115.11-92.38 0-51.38-31.61-88.92-82.5-97.32v-0.99c32.11-8.89 36.55-39.03 36.55-72.13s-3.94-69.16 4.94-89.91h-103.74c-3.95 8.89-4.44 18.78-4.44 34.58 0 16.8 5.43 38.54 5.43 56.32 0 18.28-13.83 32.11-43.96 32.11h-46.94l-25.69-123.01h-106.71l73.11 352.73"/>
      <path d="m3583.9 1596.2h-97.82l18.77 90.41h304.32l-18.77-90.41h-97.81l-54.35-262.32h-108.68l54.34 262.32"/>
      <path d="m2161.6 1208.6h291.48l-18.29-90.41h-182.78l-9.39-43.97h169.45l-17.29-83.981h-169.95l-9.38-43.961h186.74l-18.77-90.41h-295.43l73.61 352.73"/>
      <path d="m2485.7 1208.6h107.7l66.2-192.68h0.99l39.52 192.68h103.25l-74.1-352.73h-106.71l-64.72 197.6h-0.98l-41.01-197.6h-103.25l73.11 352.73"/>
      <path d="m3027.1 889.92-0.99 0.98c-22.73-30.628-57.8-43.468-95.35-43.468-123.5 0-143.26 104.73-143.26 148.7 0 110.66 63.23 220.83 201.55 220.83 79.05 0 145.25-40.02 146.23-131.91h-102.75c-2.96 32.61-22.23 43.97-49.89 43.97-59.78 0-86.46-63.73-86.46-124.49 0-41.499 17.78-69.159 61.75-69.159 29.15 0 53.85 10.367 64.72 39.02h-49.4l15.8 75.589h144.26l-40.51-194.15h-68.67l2.97 34.09"/>
      <path d="m3200 1208.6h108.68l-54.34-262.32h156.11l-18.77-90.41h-264.8l73.12 352.73"/>
      <path d="m3579.4 981.8h67.69l-11.87 105.72h-0.98zm26.68 226.76h106.71l54.84-352.73h-106.71l-5.93 50.391h-115.11l-27.17-50.391h-110.66l204.03 352.73"/>
      <path d="m3856.6 1208.6h107.7l66.2-192.68h0.99l39.52 192.68h103.25l-74.1-352.73h-106.71l-64.72 197.6h-0.99l-41-197.6h-103.25l73.11 352.73"/>
      <path d="m4260.7 946.24h52.38c71.13 0 87.44 73.602 87.44 106.21 0 52.86-27.18 65.7-63.73 65.7h-40.02zm-54.33 262.32h162.53c64.71 0 146.23-40.51 140.3-155.62-5.93-117.57-79.54-197.11-202.05-197.11h-174.4l73.62 352.73"/>
      <path d="m1837.7 1294.6c0-5.77 1.98-13.51 1.98-19.23 0-234.37-144.09-434.2-345.85-520.68l-1.93 190.22s0 163.28 99.84 249.8c113.36 97.97 245.96 99.89 245.96 99.89"/>
      <path d="m1059.6 754.73c-203.64 84.551-345.8 286.31-345.8 520.68 0 5.72 1.926 13.46 1.926 19.23 0 0 130.68-1.92 245.91-99.89 99.891-86.52 97.971-249.8 97.971-249.8v-190.22"/>
      <path d="m1249.8 712.51h26.94 24.96v265.14s1.92 218.98 155.68 349.6c153.61 130.68 343.82 153.76 343.82 153.76-82.62 209.4-286.25 357.29-524.46 357.29-238.26 0-441.94-147.89-524.47-357.29 0 0 188.24-23.08 343.82-153.76 153.71-130.62 155.69-349.6 155.69-349.6v-263.27zm-172.95 785.77c0 107.58 88.45 195.98 198.01 195.98 107.49 0 195.89-88.4 195.89-195.98 0-107.59-88.4-195.99-195.89-195.99-109.56 0-198.01 88.4-198.01 195.99"/>
   </g>
</svg>
