<?xml version="1.0" encoding="UTF-8"?>
<svg version="1.1" viewBox="0 0 205 105" xmlns="http://www.w3.org/2000/svg">
  <path fill="#1F1A17" stroke="#1F1A17" stroke-width="0.0762" d="m153.66 16.347c-7.6616-5.3205-13.514-8.9386-17.558-10.854-5.3205-2.4473-10.801-3.6712-16.441-3.6712-5.7462 0-12.61 1.3301-20.591 3.9905l8.6193-0.6385c7.0232 0 13.94 2.0219 20.75 6.0654 0.9578 0.532 5.5335 3.5647 13.727 9.0982 7.1297 4.895 13.142 8.4597 18.037 10.694 4.895 2.2347 9.2047 3.352 12.929 3.352 5.9589 0 11.519-0.9844 16.68-2.9529 5.1608-1.9685 9.3906-4.496 12.69-7.5818l-0.7981-0.3193c-5.5335 2.6604-8.5128 4.097-8.9385 4.3097-3.0859 1.2769-6.0655 1.9154-8.9386 1.9154-3.6181 0-7.8212-1.0108-12.61-3.0327s-10.641-5.4801-17.558-10.375zm-33.36 8.6193c26.177 14.046 44.959 21.069 56.345 21.069 5.5334 0 12.237-1.1704 20.112-3.5116-2.6604 2.022-6.5176 3.9107-11.572 5.6664-5.0547 1.7558-9.923 2.6337-14.605 2.6337-8.0873 0-15.749-1.3036-22.985-3.9106-7.2359-2.607-20.165-8.8056-38.787-18.595-11.812-6.1719-21.841-10.668-30.088-13.488s-15.243-4.2298-20.99-4.2298c-15.004 0-27.507 4.682-37.51 14.046-9.4705 8.9385-14.206 19.42-14.206 31.444 0 12.876 5.4801 23.676 16.44 32.402 10.428 8.3001 22.666 12.45 36.712 12.45 8.0874 0 16.334-1.1173 24.741-3.3519 9.6836-2.5539 18.888-6.4378 27.614-11.652-6.3847 5.1078-14.259 9.0982-23.623 11.971-7.5551 2.3411-16.547 4.0969-26.975 5.2674-16.174 0-29.795-4.2566-40.862-12.769-11.705-9.0451-17.558-20.91-17.558-35.595 0-13.62 5.5068-25.672 16.52-36.153 11.014-10.482 23.49-15.722 37.43-15.722l7.1828 0.4788c6.7039 0.532 14.711 2.5806 24.022 6.1453 9.3109 3.5646 20.192 8.6991 32.642 15.403zm-91.301 19.473c6.4912-4.2565 12.743-7.369 18.755-9.3375s11.838-2.9529 17.478-2.9529c5.959 0 11.679 0.8511 17.159 2.5538 5.48 1.7027 11.413 4.1501 17.797 7.3424 1.5961 0.745 7.3423 3.9373 17.239 9.577 18.728 10.641 33.786 15.962 45.172 15.962 5.9589 0 11.971-1.2769 18.037-3.8308h2.075c-3.5116 2.0219-7.6883 3.8575-12.53 5.5068-4.8416 1.6492-9.0184 2.474-12.53 2.474-5.6396 0-11.971-1.0108-18.994-3.0327-9.8962-2.8731-20.431-7.6085-31.604-14.206-10.428-6.1719-18.941-10.535-25.539-13.089-7.7682-2.9796-15.11-4.4692-22.027-4.4692-8.7258 0-18.303 2.5007-28.731 7.5019h-1.7558z"/>
</svg>
