<?xml version="1.0" encoding="UTF-8"?>
<svg version="1.0" viewBox="0 0 939.28 277.15" xmlns="http://www.w3.org/2000/svg" xmlns:cc="http://creativecommons.org/ns#" xmlns:dc="http://purl.org/dc/elements/1.1/" xmlns:rdf="http://www.w3.org/1999/02/22-rdf-syntax-ns#">
<metadata>
<rdf:RDF>
<cc:Work rdf:about="">
<dc:format>image/svg+xml</dc:format>
<dc:type rdf:resource="http://purl.org/dc/dcmitype/StillImage"/>
<dc:title/>
</cc:Work>
</rdf:RDF>
</metadata>
<g transform="translate(-40.656 -201.62)">
<path d="m174.88 201.62c-1.2492 0.0697-2.3373 0.86116-4.0625 2.75-4.62 5.0583-5.932 8.4214-9.4062 23.875-1.553 6.908-0.14143 6.8401 0.0937 9.2812 0.12243 1.2708 0.0396 4.1445-0.15625 7.7188 7.6359 4.8122 14.372 11.521 19.781 19.656 0.98067-8.5484 2.2469-17.428 2.2188-19.312-0.065-4.224 0.75372-5.53 1.0625-11.219 0.30879-5.6887 0.77329-10.555 1.0312-10.812 0.25795-0.25795 3.5056 0.14889 7.2188 0.875 7.5364 1.4738 35.318 1.5685 77.094 0.28125 24.985-0.76988 25.367-0.82854 27.25-3.1562 2.4248-2.9976 2.4189-3.0923-0.625-6.375-2.7917-3.0107-7.8509-3.6523-14.375-1.7812-2.0842 0.59773-3.8552 0.62356-4.5312 0.0625-0.60932-0.50569-6.2853-0.89774-12.594-0.875-6.3085 0.0227-12.743-0.44857-14.312-1.0625s-6.877-1.2304-11.812-1.3438c-4.9354-0.11338-9.225-0.55496-9.5-1-0.58696-0.94971-16.542-0.0335-23.969 1.375-5.4486 1.0333-13.932 2.0463-18.781 2.25-2.3384 0.0983-3.0612-0.39506-3.625-2.4688-1.138-4.1858-4.0127-7.899-6.6562-8.5625-0.48338-0.12132-0.92735-0.17949-1.3438-0.15625zm141.59 15.812c-3.934 0-8.155 5.5758-12.406 16.375-2.1908 5.5653-4.5247 11.925-5.1875 14.125-0.66281 2.2-1.8264 5.575-2.5625 7.5-2.627 6.8701-4.4062 15.872-4.4062 22.375 0 3.6331-0.40869 6.625-0.9375 6.625-2.241 0-6.2187 25.25-4.2812 27.188 0.79441 0.79441 0.98335 3.4904 0.5625 8.4688-0.44027 5.2084-0.2476 7.7234 0.65625 8.8125 0.69682 0.83961 2.1051 1.5312 3.125 1.5312 2.314 0 9.506-8.9497 10.375-12.906 0.3541-1.6122 1.2275-3.165 1.9375-3.4375 1.7334-0.66518 7.2326-14.794 8.4375-21.656 0.53176-3.0286 1.6708-7.5286 2.5312-10 0.86042-2.4714 1.5857-6.3644 1.5938-8.6562 8e-3 -2.2919 0.90001-6.2776 2-8.8438 1.1-2.5662 2-6.2533 2-8.1875 0-1.9342 1.0978-7.6236 2.4062-12.656 3.7149-14.288 3.7856-15.176 1.5625-17.188-1.0739-0.97189-1.9687-2.812-1.9688-4.0625 0-2.9248-2.493-5.4062-5.4375-5.4062zm-130.38 136.94c-2.842 5.7236-6.2798 10.964-10.188 15.562 5.1008 1.2717 11.434 2.0237 19.281 2.5 2.7499 0 8.9754-0.53932 13.844-1.1875 4.8683-0.64817 9.1585-0.90402 9.5-0.5625 0.34151 0.3415-0.32031 1.8998-1.4375 3.4688-2.0801 2.9212-5.7364 11.881-8.5 20.781-0.8539 2.75-2.0036 6.35-2.5625 8-2.3072 6.8115-3.7992 14.387-4.0312 20.5-0.13552 3.5699-0.57378 6.7199-0.96875 7-2.3584 1.6724-6.0892 25.411-4.2812 27.219 0.7538 0.7538 0.91163 3.5679 0.5 8.4375-0.65812 7.7856-0.74214 12.344 2.7188 12.344 2.2013 0 9.5444-9.4929 11.094-13.938 0.61848-1.7742 2.163-4.288 3.4688-5.5938 1.3058-1.3058 2.375-3.0613 2.375-3.875 0-0.81375 1.0939-4.0825 2.4062-7.2812 1.3123-3.1988 2.94-8.9625 3.625-12.812 0.68504-3.85 1.6123-7.7187 2.0625-8.5938 0.45018-0.87507 0.91462-3.5751 1.0312-6 0.11664-2.4249 0.98147-6.6562 1.9375-9.4062 0.95602-2.75 2.0039-7.3852 2.3125-10.312 0.30858-2.9273 0.99733-6.7524 1.5312-8.5 1.174-3.8427 2.7933-10.212 3.5625-13.938 0.40402-1.9568-7.5e-4 -3.3132-1.4688-4.7812-2.8853-2.8853-1.5543-4.3358 3.2812-3.5625 2.2047 0.35255 5.4565 0.18567 7.25-0.40625 1.7955-0.59256 12.384-1.1673 23.531-1.2812 17.115-0.17503 20.386-0.46071 21.219-1.7812 0.7331-1.1626 0.37989-2.229-1.4062-4.1562-2.3847-2.5732-2.503-2.5966-18.875-2.7188-29.424-0.21952-49.345-1.0328-50.375-2.0625-0.5542-0.5542-5.0257-0.6273-8.7188-1-8.1205-0.81951-17.452-0.8138-23.719-2.0625z"/>
<text x="604.24377" y="444.12219" fill="#000000" font-family="Arial" font-size="10px" xml:space="preserve"><tspan x="604.24377" y="444.12219" dx="0 -4.8577509 -6.0480986 -4.9497466 -5.329843 -6.4847331 -7.3303895" fill="#008000" font-family="Trebuchet MS" font-size="119px">england</tspan></text>
<text x="363.64081" y="369.33829" fill="#000000" font-family="Arial" font-size="10px" xml:space="preserve"><tspan x="363.64081" y="369.33829" dx="0 -9.4328632 -10.049193 -4.8932095 -10.121124 -10.300819 -5.1989908 -10.874693 -11.756968" font-family="Trebuchet MS" font-size="176px">stoolball</tspan></text>
<path d="m125.28 235.59c-4.1969 0.0589-8.2977 0.86292-11.781 2.4062-10.617 4.7037-22.875 15.825-22.875 20.75 0 0.91348-0.66723 1.9112-1.4688 2.2188-1.881 0.72183-6.2441 7.6897-7.125 11.344-0.37563 1.5582-1.8068 5.0625-3.1875 7.8125-1.3807 2.75-2.8576 6.35-3.2812 8-0.42361 1.65-2.1394 6.825-3.8125 11.5-1.6731 4.675-3.0749 10.521-3.0938 13-0.01889 2.4786-0.50228 6.0786-1.0938 8-0.59147 1.9214-1.0533 7.7555-1 12.938 0.08745 8.5024 0.45469 10.173 3.5938 17.125 1.9132 4.2372 3.4688 9.0167 3.4688 10.625 0 1.6083 0.38616 3.3525 0.84375 3.875 0.45759 0.5225 1.7526 3.2388 2.875 6.0312l2.0312 5.0625-12.375 5.9062c-6.805 3.2376-12.375 6.1235-12.375 6.4375 0 0.31395-1.4114 1.4068-3.1562 2.4375-1.7449 1.0307-4.8949 3.4419-7 5.3438-3.1104 2.8101-3.8249 4.1409-3.8125 7.0938 0.01627 3.8606 0.43872 4.8459 3.1875 7 1.5146 1.1869 2.5311 0.78633 8.1875-3.25 3.5484-2.5321 6.7585-4.625 7.125-4.625 0.36654 0 1.8919-0.89041 3.4062-1.9688 1.5144-1.0784 4.9607-2.6788 7.6562-3.5625 2.6955-0.88374 6.3294-2.2433 8.0625-3.0312 6.0221-2.7378 11.938-1.1825 19.844 5.1875 2.2008 1.7734 5.8692 4.2634 8.1562 5.5625 5.3524 3.0402 13.903 11.031 15.875 14.844 0.8444 1.6329 1.8938 2.9687 2.3438 2.9688 0.44995 0 2.9782 2.7 5.625 6 2.6468 3.3 5.4172 6 6.1562 6 0.73909 0 1.3438 0.59499 1.3438 1.3125 0 0.71752 1.6401 3.083 3.625 5.25 4.2796 4.6722 9.5862 12.69 11.312 17.094 0.67938 1.7332 2.3255 4.1873 3.6562 5.4375 1.3308 1.2502 2.4063 2.9378 2.4062 3.7812 0 1.8797 6.9246 9.125 8.7188 9.125 0.71338 0 1.2813 0.44999 1.2812 1 0 2.2171 7.0299 1.0029 10.125-1.75 5.062-4.5023 7.7119-11.997 4.875-13.75-0.55-0.33992-0.99999-1.2494-1-2.0312 0-1.4288-5.1748-9.8092-8.9375-14.469-1.1103-1.375-2.019-2.9992-2.0312-3.625-0.0122-0.62578-1.5149-3.3258-3.3438-6s-4.5087-7.35-5.9375-10.375c-3.1779-6.7282-9.2636-14-11.719-14-1.1224 0-2.0621-1.0048-2.4688-2.625-0.80016-3.1881-0.68263-3.3138 5.4688-5.8438 5.387-2.2156 18.564-12.033 23.406-17.438 12.425-13.869 10.97-15.273 15.594-19.5 4.4946-7.8562 5.9217-12.069 7.5938-15.375 1.2685-2.5879 2.3266-5.3975 2.3438-6.25 0.0172-0.8525 0.38938-1.9775 0.84375-2.5 1.147-1.319 2.8032-7.682 4.1562-15.969 0.6286-3.85 1.6531-9.2204 2.25-11.938 1.2728-5.7937 0.36529-30.129-1.1875-32-0.56016-0.67495-0.79002-1.4912-0.5-1.7812 0.29003-0.29003-1.3053-4.3395-3.5625-9-3.0098-6.2145-6.1474-10.637-11.781-16.625-4.2251-4.4908-8.505-8.1607-9.5-8.1562-0.99496 5e-3 -1.5713-0.37443-1.2812-0.84375-7.5812-2.0005-12.786-6.2414-20.594-5.625-1.706 1.706-16.765 0.15491-23.812-2.4688-3.8685-1.4402-8.1469-2.1526-12.344-2.0938zm24.469 26.875c4.3914-0.0629 8.2039 0.26898 9.5625 1 1.2013 0.64642 3.3482 1.1562 4.7812 1.1562 5.941 0 15.232 6.5919 18.656 13.25 1.0608 2.0625 2.3534 3.75 2.875 3.75 0.52156 0 0.69821 0.61419 0.40625 1.375-0.29194 0.76079 0.19792 3.1233 1.0938 5.25 1.3598 3.2282 2.8216 16.923 2.6562 24.875-0.16141 7.7618-7.1758 32.816-11.531 41.188-4.7949 9.2161-23.173 24.108-31.625 25.625-2.475 0.44424-8.775 1.0137-14 1.25-8.666 0.39201-9.9828 0.19792-15-2.1875-10.596-5.0377-10.308-4.6979-18.969-23.875-4.6487-10.293-5.2443-13.484-5.5625-30.375-0.32506-17.256-0.36376-16.978 5.2812-34.344l2.5-7.6875 4.3438 0.59375c4.2633 0.58435 4.3901 0.47968 11.094-6.1562 8.9279-8.8376 13.632-11.912 20.375-13.375 3.7034-0.80351 8.671-1.2496 13.062-1.3125z" fill="#008000"/>
</g>
</svg>
